<svg width="27" height="23" viewBox="0 0 27 23" fill="none" xmlns="http://www.w3.org/2000/svg">
<path d="M26.8873 5.53868C26.7704 8.07286 24.9964 11.5427 21.5655 15.9483C18.0177 20.5488 15.0157 22.8491 12.5594 22.8491C11.0389 22.8491 9.75234 21.4456 8.69968 18.6385L6.59435 10.9189C5.8146 8.11185 4.97636 6.7083 4.07965 6.7083C3.88471 6.7083 3.20243 7.11767 2.0328 7.93641L0.804688 6.35742C2.09127 5.22678 3.35837 4.09614 4.60596 2.96551C6.3214 1.48399 7.60799 0.704244 8.46572 0.626265C10.4931 0.431331 11.7407 1.81538 12.2085 4.77842C12.7153 7.9754 13.0662 9.96377 13.2612 10.7435C13.846 13.3947 14.4893 14.7202 15.191 14.7202C15.7369 14.7202 16.5556 13.8625 17.6473 12.1471C18.7389 10.4316 19.3237 9.12555 19.4017 8.22883C19.5577 6.74731 18.9728 6.00655 17.6473 6.00655C17.0235 6.00655 16.3802 6.14301 15.7174 6.41593C17.004 2.24426 19.4602 0.216918 23.086 0.333887C25.7762 0.411866 27.0432 2.14681 26.8873 5.53872L26.8873 5.53868Z" fill="#37434E"/>
</svg>
